<?xml version="1.0" encoding="UTF-8" standalone="no"?>
<svg width="11px" height="11px" viewBox="0 0 11 11" version="1.1" xmlns="http://www.w3.org/2000/svg" xmlns:xlink="http://www.w3.org/1999/xlink">
    <!-- Generator: Sketch 42 (36781) - http://www.bohemiancoding.com/sketch -->
    <title>Combined Shape</title>
    <desc>Created with Sketch.</desc>
    <defs></defs>
    <g id="Page-1" stroke="none" stroke-width="1" fill="none" fill-rule="evenodd">
        <g id="uploaded" transform="translate(-1413.000000, -17.000000)" fill="#8D8D8D">
            <g id="Escape" transform="translate(1402.000000, 6.000000)">
                <path d="M16.1696275,15.1094534 L12.2824499,11.2222759 C11.9851539,10.9249799 11.5127732,10.9274729 11.21988,11.2203661 C10.9249448,11.5153013 10.9278418,11.9889881 11.2217897,12.282936 L15.1089673,16.1701136 L11.2217897,20.0572911 C10.9278418,20.3512391 10.9249448,20.8249258 11.21988,21.1198611 C11.5127732,21.4127543 11.9851539,21.4152473 12.2824499,21.1179513 L16.1696275,17.2307738 L20.056805,21.1179513 C20.354101,21.4152473 20.8264817,21.4127543 21.1193749,21.1198611 C21.4143101,20.8249258 21.4114131,20.3512391 21.1174652,20.0572911 L17.2302876,16.1701136 L21.1174652,12.282936 C21.4114131,11.9889881 21.4143101,11.5153013 21.1193749,11.2203661 C20.8264817,10.9274729 20.354101,10.9249799 20.056805,11.2222759 L16.1696275,15.1094534 L16.1696275,15.1094534 Z" id="Combined-Shape"></path>
            </g>
        </g>
    </g>
</svg>